# xmcd
#
# Track frame offsets:
#	150
#	24482
#	54351
#	83084
#	142355
#	180213
#	210138
#	285327
#
# Disc length: 4276 seconds
#
# Revision: 0
# Processed by: cddbd v1.5.2PL0 Copyright (c) Steve Scherf et al.
# Submitted via: EasyCDDAExtractor 10.0.2.1
#
DISCID=5f10b208
DTITLE=Heaven And Hell - Fields Of Rock Biddinghuizen 16-06-07
DYEAR=1900
DGENRE=Hard Rock
TTITLE0=E5150 - The Mob Rules
TTITLE1=Children Of The Sea
TTITLE2=I
TTITLE3=The Sign Of The Southern Cross (Incl Drum Solo)
TTITLE4=Voodoo
TTITLE5=Die Young
TTITLE6=Heaven And Hell
TTITLE7=Neon Knights
EXTD=
EXTT0=
EXTT1=
EXTT2=
EXTT3=
EXTT4=
EXTT5=
EXTT6=
EXTT7=
PLAYORDER=
